# Blender v2.79 (sub 0) OBJ File: ''
# www.blender.org
mtllib fly.mtl
o ORG_FLY
v 0.000000 0.543750 -1.706250
v 0.000000 1.087500 -0.900000
v 0.862500 0.525000 -0.900000
v -0.862500 0.543750 -0.900000
v -0.581250 0.656250 0.637500
v 0.000000 1.050000 0.618750
v -0.018750 0.862500 0.206250
v -0.543750 0.543750 0.187500
v 0.581250 0.543750 0.618750
v 0.543750 0.543750 0.187500
v -0.543750 0.956250 -1.312500
v -0.881250 1.087500 -0.187500
v -1.800000 0.712500 -1.856250
v 0.450000 0.956250 -1.312500
v 0.881250 1.087500 -0.187500
v 1.800000 0.712500 -1.856250
v -0.581250 0.543750 0.393750
v -1.068750 0.375000 1.293750
v -0.956250 0.375000 1.256250
v -1.087500 0.375000 1.181250
v -1.143750 -0.112500 2.025000
v -0.562500 0.543750 -0.093750
v -1.256250 0.300000 0.393750
v -1.181250 0.300000 0.431250
v -1.200000 0.300000 0.300000
v -1.968750 -0.075000 0.918750
v 1.237500 0.300000 0.431250
v 1.218750 0.300000 0.543750
v 1.875000 -0.075000 1.068750
v 0.525000 0.543750 -0.037500
v 0.300000 1.087500 0.862500
v 0.000000 0.543750 1.125000
v 0.431250 0.562500 1.031250
v 1.087500 0.375000 1.181250
v 0.956250 0.375000 1.050000
v 1.143750 -0.112500 2.025000
v 0.581250 0.543750 0.393750
v -0.300000 1.087500 0.862500
v -0.431250 0.562500 1.031250
vt 0.791182 0.326916
vt 0.839658 0.171747
vt 0.980431 0.270807
vt 0.669216 0.171747
vt 0.024116 0.205123
vt 0.168876 0.172123
vt 0.166957 0.267977
vt 0.041572 0.301943
vt 0.326237 0.214450
vt 0.299411 0.301943
vt 0.720280 0.964520
vt 0.825957 0.858058
vt 0.922498 0.935373
vt 0.579530 0.858058
vt 0.733267 0.724779
vt 0.581280 0.857975
vt 0.579530 0.730071
vt 0.733267 0.537479
vt 0.372604 0.596875
vt 0.411624 0.556443
vt 0.411624 0.773570
vt 0.343144 0.772931
vt 0.372425 0.760944
vt 0.372425 0.965243
vt 0.207558 0.760944
vt 0.237000 0.812070
vt 0.052342 0.812070
vt 0.260057 0.850468
vt 0.273300 0.874854
vt 0.052342 0.874854
vt 0.052342 0.895175
vt 0.065153 0.875032
vt 0.256716 0.895175
vt 0.052342 0.850289
vt 0.080381 0.812249
vt 0.237998 0.850289
vt 0.249644 0.657470
vt 0.155998 0.569241
vt 0.279693 0.556443
vt 0.218763 0.738466
vt 0.372425 0.637301
vt 0.411803 0.585316
vt 0.437798 0.556443
vt 0.437798 0.787954
vt 0.316547 0.760944
vt 0.342965 0.799930
vt 0.316547 0.960051
vt 0.052342 0.760765
vt 0.142199 0.700188
vt 0.052342 0.638985
vt 0.636836 0.300322
vt 0.499341 0.315302
vt 0.497164 0.163666
vt 0.583830 0.157612
vt 0.363164 0.300782
vt 0.414852 0.157612
vn 0.4756 0.7293 -0.4918
vn -0.4632 0.7348 -0.4955
vn -0.5180 0.8043 -0.2910
vn 0.5691 0.7938 -0.2143
vn 0.2662 0.9634 -0.0325
vn -0.1246 0.9805 -0.1518
vn -0.2496 0.9682 -0.0173
vn 0.1135 0.9809 -0.1579
vn -0.7362 0.6144 -0.2836
vn -0.2678 0.8419 0.4686
vn -0.3181 0.9478 0.0212
vn -0.4002 0.9147 0.0572
vn 0.4489 0.8904 0.0748
vn 0.3402 0.9399 -0.0283
vn 0.1853 0.3424 0.9211
vn -0.5525 0.5894 0.5894
vn 0.4823 0.5537 -0.6788
vn 0.8940 0.3233 0.3104
vn -0.4658 0.7524 0.4658
vn 0.3162 0.9487 0.0000
vn -0.4439 0.6247 -0.6424
vn -0.8481 0.3421 0.4045
vn -0.1853 0.3424 0.9211
vn 0.5525 0.5894 0.5894
vn 0.5208 0.8387 0.1590
vn -0.5229 0.8377 0.1574
usemtl fly_colors
s off
f 1/1/1 2/2/1 3/3/1
f 1/1/2 4/4/2 2/2/2
f 5/5/3 6/6/3 7/7/3 8/8/3
f 6/6/4 9/9/4 10/10/4 7/7/4
f 11/11/5 12/12/5 7/13/5
f 11/11/6 13/14/6 12/12/6
f 14/15/7 7/16/7 15/17/7
f 16/18/8 14/15/8 15/17/8
f 5/19/9 17/20/9 18/21/9
f 19/22/10 20/23/10 21/24/10
f 8/25/11 22/26/11 23/27/11
f 24/28/12 25/29/12 26/30/12
f 27/31/13 28/32/13 29/33/13
f 30/34/14 10/35/14 27/36/14
f 31/37/15 32/38/15 33/39/15
f 6/40/16 32/38/16 31/37/16
f 9/41/17 6/40/17 31/37/17
f 31/37/18 33/39/18 9/41/18
f 34/42/19 35/43/19 36/44/19
f 37/45/20 9/46/20 34/47/20
f 5/48/21 38/49/21 6/40/21
f 39/50/22 38/49/22 5/48/22
f 32/38/23 38/49/23 39/50/23
f 6/40/24 38/49/24 32/38/24
f 3/51/25 2/52/25 7/53/25 10/54/25
f 2/52/26 4/55/26 8/56/26 7/53/26
